<mxfile host="app.diagrams.net" modified="2021-04-15T23:00:44.430Z" agent="5.0 (Windows NT 10.0; Win64; x64) AppleWebKit/537.36 (KHTML, like Gecko) Chrome/89.0.4389.128 Safari/537.36" etag="0Zx6V_UHNmwzvEjFe2XC" version="14.6.1" type="github">
  <diagram id="C5RBs43oDa-KdzZeNtuy" name="Page-1">
    <mxGraphModel dx="281" dy="427" grid="1" gridSize="10" guides="1" tooltips="1" connect="1" arrows="1" fold="1" page="1" pageScale="1" pageWidth="827" pageHeight="1169" math="0" shadow="0">
      <root>
        <mxCell id="WIyWlLk6GJQsqaUBKTNV-0" />
        <mxCell id="WIyWlLk6GJQsqaUBKTNV-1" parent="WIyWlLk6GJQsqaUBKTNV-0" />
        <mxCell id="03mNp1cd8KaJh_UKAjxY-227" value="Empleado" style="swimlane;fontStyle=0;align=center;verticalAlign=top;childLayout=stackLayout;horizontal=1;startSize=26;horizontalStack=0;resizeParent=1;resizeLast=0;collapsible=1;marginBottom=0;rounded=0;shadow=0;strokeWidth=1;" parent="WIyWlLk6GJQsqaUBKTNV-1" vertex="1">
          <mxGeometry x="2160" y="94" width="230" height="296" as="geometry">
            <mxRectangle x="508" y="120" width="160" height="26" as="alternateBounds" />
          </mxGeometry>
        </mxCell>
        <mxCell id="03mNp1cd8KaJh_UKAjxY-229" value="- nombre:string" style="text;align=left;verticalAlign=top;spacingLeft=4;spacingRight=4;overflow=hidden;rotatable=0;points=[[0,0.5],[1,0.5]];portConstraint=eastwest;" parent="03mNp1cd8KaJh_UKAjxY-227" vertex="1">
          <mxGeometry y="26" width="230" height="26" as="geometry" />
        </mxCell>
        <mxCell id="03mNp1cd8KaJh_UKAjxY-230" value="- direccion:string" style="text;align=left;verticalAlign=top;spacingLeft=4;spacingRight=4;overflow=hidden;rotatable=0;points=[[0,0.5],[1,0.5]];portConstraint=eastwest;rounded=0;shadow=0;html=0;" parent="03mNp1cd8KaJh_UKAjxY-227" vertex="1">
          <mxGeometry y="52" width="230" height="26" as="geometry" />
        </mxCell>
        <mxCell id="03mNp1cd8KaJh_UKAjxY-231" value="- estadoCivil:string" style="text;align=left;verticalAlign=top;spacingLeft=4;spacingRight=4;overflow=hidden;rotatable=0;points=[[0,0.5],[1,0.5]];portConstraint=eastwest;rounded=0;shadow=0;html=0;" parent="03mNp1cd8KaJh_UKAjxY-227" vertex="1">
          <mxGeometry y="78" width="230" height="26" as="geometry" />
        </mxCell>
        <mxCell id="03mNp1cd8KaJh_UKAjxY-232" value="- fechaNacimiento:date" style="text;align=left;verticalAlign=top;spacingLeft=4;spacingRight=4;overflow=hidden;rotatable=0;points=[[0,0.5],[1,0.5]];portConstraint=eastwest;rounded=0;shadow=0;html=0;" parent="03mNp1cd8KaJh_UKAjxY-227" vertex="1">
          <mxGeometry y="104" width="230" height="26" as="geometry" />
        </mxCell>
        <mxCell id="03mNp1cd8KaJh_UKAjxY-235" value="" style="line;html=1;strokeWidth=1;align=left;verticalAlign=middle;spacingTop=-1;spacingLeft=3;spacingRight=3;rotatable=0;labelPosition=right;points=[];portConstraint=eastwest;" parent="03mNp1cd8KaJh_UKAjxY-227" vertex="1">
          <mxGeometry y="130" width="230" height="8" as="geometry" />
        </mxCell>
        <mxCell id="03mNp1cd8KaJh_UKAjxY-236" value="+ setEdad()" style="text;align=left;verticalAlign=top;spacingLeft=4;spacingRight=4;overflow=hidden;rotatable=0;points=[[0,0.5],[1,0.5]];portConstraint=eastwest;" parent="03mNp1cd8KaJh_UKAjxY-227" vertex="1">
          <mxGeometry y="138" width="230" height="26" as="geometry" />
        </mxCell>
        <mxCell id="03mNp1cd8KaJh_UKAjxY-237" value="+ setFechaNacimieto(date)" style="text;align=left;verticalAlign=top;spacingLeft=4;spacingRight=4;overflow=hidden;rotatable=0;points=[[0,0.5],[1,0.5]];portConstraint=eastwest;" parent="03mNp1cd8KaJh_UKAjxY-227" vertex="1">
          <mxGeometry y="164" width="230" height="26" as="geometry" />
        </mxCell>
        <mxCell id="03mNp1cd8KaJh_UKAjxY-238" value="+ setEstadoCivil(string)" style="text;align=left;verticalAlign=top;spacingLeft=4;spacingRight=4;overflow=hidden;rotatable=0;points=[[0,0.5],[1,0.5]];portConstraint=eastwest;" parent="03mNp1cd8KaJh_UKAjxY-227" vertex="1">
          <mxGeometry y="190" width="230" height="26" as="geometry" />
        </mxCell>
        <mxCell id="03mNp1cd8KaJh_UKAjxY-239" value="+ setCantidadHijos(string)" style="text;align=left;verticalAlign=top;spacingLeft=4;spacingRight=4;overflow=hidden;rotatable=0;points=[[0,0.5],[1,0.5]];portConstraint=eastwest;" parent="03mNp1cd8KaJh_UKAjxY-227" vertex="1">
          <mxGeometry y="216" width="230" height="26" as="geometry" />
        </mxCell>
        <mxCell id="03mNp1cd8KaJh_UKAjxY-243" value="new(nombre:string, apellido:string, estadoCivil:string, fechaNacimiento:date)" style="text;align=left;verticalAlign=top;spacingLeft=4;spacingRight=4;overflow=hidden;rotatable=0;points=[[0,0.5],[1,0.5]];portConstraint=eastwest;fontStyle=4;whiteSpace=wrap;" parent="03mNp1cd8KaJh_UKAjxY-227" vertex="1">
          <mxGeometry y="242" width="230" height="38" as="geometry" />
        </mxCell>
        <mxCell id="03mNp1cd8KaJh_UKAjxY-244" style="edgeStyle=orthogonalEdgeStyle;rounded=0;jumpSize=18;orthogonalLoop=1;jettySize=auto;html=1;entryX=0.5;entryY=1;entryDx=0;entryDy=0;fontSize=12;endArrow=block;endFill=0;startSize=6;endSize=16;strokeColor=#000000;" parent="WIyWlLk6GJQsqaUBKTNV-1" source="03mNp1cd8KaJh_UKAjxY-245" target="03mNp1cd8KaJh_UKAjxY-227" edge="1">
          <mxGeometry relative="1" as="geometry" />
        </mxCell>
        <mxCell id="03mNp1cd8KaJh_UKAjxY-245" value="EmpleadoPermanente" style="swimlane;fontStyle=0;align=center;verticalAlign=top;childLayout=stackLayout;horizontal=1;startSize=26;horizontalStack=0;resizeParent=1;resizeLast=0;collapsible=1;marginBottom=0;rounded=0;shadow=0;strokeWidth=1;" parent="WIyWlLk6GJQsqaUBKTNV-1" vertex="1">
          <mxGeometry x="2370" y="450" width="200" height="150" as="geometry">
            <mxRectangle x="1570" y="656" width="160" height="28" as="alternateBounds" />
          </mxGeometry>
        </mxCell>
        <mxCell id="03mNp1cd8KaJh_UKAjxY-247" value="-cantidadHijos:int" style="text;align=left;verticalAlign=top;spacingLeft=4;spacingRight=4;overflow=hidden;rotatable=0;points=[[0,0.5],[1,0.5]];portConstraint=eastwest;rounded=0;shadow=0;html=0;" parent="03mNp1cd8KaJh_UKAjxY-245" vertex="1">
          <mxGeometry y="26" width="200" height="26" as="geometry" />
        </mxCell>
        <mxCell id="03mNp1cd8KaJh_UKAjxY-248" value="-antiguedad:int" style="text;align=left;verticalAlign=top;spacingLeft=4;spacingRight=4;overflow=hidden;rotatable=0;points=[[0,0.5],[1,0.5]];portConstraint=eastwest;rounded=0;shadow=0;html=0;" parent="03mNp1cd8KaJh_UKAjxY-245" vertex="1">
          <mxGeometry y="52" width="200" height="26" as="geometry" />
        </mxCell>
        <mxCell id="03mNp1cd8KaJh_UKAjxY-249" value="" style="line;html=1;strokeWidth=1;align=left;verticalAlign=middle;spacingTop=-1;spacingLeft=3;spacingRight=3;rotatable=0;labelPosition=right;points=[];portConstraint=eastwest;" parent="03mNp1cd8KaJh_UKAjxY-245" vertex="1">
          <mxGeometry y="78" width="200" height="8" as="geometry" />
        </mxCell>
        <mxCell id="03mNp1cd8KaJh_UKAjxY-250" value="+setCantidadHijos(int)" style="text;align=left;verticalAlign=top;spacingLeft=4;spacingRight=4;overflow=hidden;rotatable=0;points=[[0,0.5],[1,0.5]];portConstraint=eastwest;fontStyle=0" parent="03mNp1cd8KaJh_UKAjxY-245" vertex="1">
          <mxGeometry y="86" width="200" height="26" as="geometry" />
        </mxCell>
        <mxCell id="03mNp1cd8KaJh_UKAjxY-251" value="+setAntiguedad(float)" style="text;align=left;verticalAlign=top;spacingLeft=4;spacingRight=4;overflow=hidden;rotatable=0;points=[[0,0.5],[1,0.5]];portConstraint=eastwest;whiteSpace=wrap;" parent="03mNp1cd8KaJh_UKAjxY-245" vertex="1">
          <mxGeometry y="112" width="200" height="38" as="geometry" />
        </mxCell>
        <mxCell id="03mNp1cd8KaJh_UKAjxY-252" style="edgeStyle=orthogonalEdgeStyle;rounded=0;jumpSize=18;orthogonalLoop=1;jettySize=auto;html=1;entryX=0.5;entryY=1;entryDx=0;entryDy=0;fontSize=12;endArrow=block;endFill=0;startSize=6;strokeColor=#000000;endSize=16;" parent="WIyWlLk6GJQsqaUBKTNV-1" source="03mNp1cd8KaJh_UKAjxY-253" target="03mNp1cd8KaJh_UKAjxY-227" edge="1">
          <mxGeometry relative="1" as="geometry" />
        </mxCell>
        <mxCell id="03mNp1cd8KaJh_UKAjxY-253" value="EmpleadoTemporario" style="swimlane;fontStyle=0;align=center;verticalAlign=top;childLayout=stackLayout;horizontal=1;startSize=26;horizontalStack=0;resizeParent=1;resizeLast=0;collapsible=1;marginBottom=0;rounded=0;shadow=0;strokeWidth=1;" parent="WIyWlLk6GJQsqaUBKTNV-1" vertex="1">
          <mxGeometry x="2135" y="450" width="210" height="140" as="geometry">
            <mxRectangle x="1370" y="658" width="160" height="26" as="alternateBounds" />
          </mxGeometry>
        </mxCell>
        <mxCell id="03mNp1cd8KaJh_UKAjxY-255" value="-fechaFinContrato:float" style="text;align=left;verticalAlign=top;spacingLeft=4;spacingRight=4;overflow=hidden;rotatable=0;points=[[0,0.5],[1,0.5]];portConstraint=eastwest;rounded=0;shadow=0;html=0;" parent="03mNp1cd8KaJh_UKAjxY-253" vertex="1">
          <mxGeometry y="26" width="210" height="26" as="geometry" />
        </mxCell>
        <mxCell id="03mNp1cd8KaJh_UKAjxY-256" value="-cantidadHorasExtras:float" style="text;align=left;verticalAlign=top;spacingLeft=4;spacingRight=4;overflow=hidden;rotatable=0;points=[[0,0.5],[1,0.5]];portConstraint=eastwest;rounded=0;shadow=0;html=0;" parent="03mNp1cd8KaJh_UKAjxY-253" vertex="1">
          <mxGeometry y="52" width="210" height="26" as="geometry" />
        </mxCell>
        <mxCell id="03mNp1cd8KaJh_UKAjxY-257" value="" style="line;html=1;strokeWidth=1;align=left;verticalAlign=middle;spacingTop=-1;spacingLeft=3;spacingRight=3;rotatable=0;labelPosition=right;points=[];portConstraint=eastwest;" parent="03mNp1cd8KaJh_UKAjxY-253" vertex="1">
          <mxGeometry y="78" width="210" height="8" as="geometry" />
        </mxCell>
        <mxCell id="03mNp1cd8KaJh_UKAjxY-258" value="+ setFechaFinContrato(float)" style="text;align=left;verticalAlign=top;spacingLeft=4;spacingRight=4;overflow=hidden;rotatable=0;points=[[0,0.5],[1,0.5]];portConstraint=eastwest;fontStyle=0" parent="03mNp1cd8KaJh_UKAjxY-253" vertex="1">
          <mxGeometry y="86" width="210" height="26" as="geometry" />
        </mxCell>
        <mxCell id="03mNp1cd8KaJh_UKAjxY-259" value="+ setCantidadHorasExtras(float)" style="text;align=left;verticalAlign=top;spacingLeft=4;spacingRight=4;overflow=hidden;rotatable=0;points=[[0,0.5],[1,0.5]];portConstraint=eastwest;" parent="03mNp1cd8KaJh_UKAjxY-253" vertex="1">
          <mxGeometry y="112" width="210" height="26" as="geometry" />
        </mxCell>
        <mxCell id="03mNp1cd8KaJh_UKAjxY-260" value="Empresa" style="swimlane;fontStyle=0;align=center;verticalAlign=top;childLayout=stackLayout;horizontal=1;startSize=26;horizontalStack=0;resizeParent=1;resizeLast=0;collapsible=1;marginBottom=0;rounded=0;shadow=0;strokeWidth=1;" parent="WIyWlLk6GJQsqaUBKTNV-1" vertex="1">
          <mxGeometry x="1690" y="16" width="230" height="424" as="geometry">
            <mxRectangle x="230" y="140" width="160" height="26" as="alternateBounds" />
          </mxGeometry>
        </mxCell>
        <mxCell id="03mNp1cd8KaJh_UKAjxY-261" value=" - cuit:float" style="text;align=left;verticalAlign=top;spacingLeft=4;spacingRight=4;overflow=hidden;rotatable=0;points=[[0,0.5],[1,0.5]];portConstraint=eastwest;" parent="03mNp1cd8KaJh_UKAjxY-260" vertex="1">
          <mxGeometry y="26" width="230" height="26" as="geometry" />
        </mxCell>
        <mxCell id="03mNp1cd8KaJh_UKAjxY-262" value="- nombre:string" style="text;align=left;verticalAlign=top;spacingLeft=4;spacingRight=4;overflow=hidden;rotatable=0;points=[[0,0.5],[1,0.5]];portConstraint=eastwest;rounded=0;shadow=0;html=0;" parent="03mNp1cd8KaJh_UKAjxY-260" vertex="1">
          <mxGeometry y="52" width="230" height="26" as="geometry" />
        </mxCell>
        <mxCell id="03mNp1cd8KaJh_UKAjxY-263" value="" style="line;html=1;strokeWidth=1;align=left;verticalAlign=middle;spacingTop=-1;spacingLeft=3;spacingRight=3;rotatable=0;labelPosition=right;points=[];portConstraint=eastwest;" parent="03mNp1cd8KaJh_UKAjxY-260" vertex="1">
          <mxGeometry y="78" width="230" height="8" as="geometry" />
        </mxCell>
        <mxCell id="03mNp1cd8KaJh_UKAjxY-264" value="+ liquidarSueldo(Empleado)" style="text;align=left;verticalAlign=top;spacingLeft=4;spacingRight=4;overflow=hidden;rotatable=0;points=[[0,0.5],[1,0.5]];portConstraint=eastwest;" parent="03mNp1cd8KaJh_UKAjxY-260" vertex="1">
          <mxGeometry y="86" width="230" height="26" as="geometry" />
        </mxCell>
        <mxCell id="03mNp1cd8KaJh_UKAjxY-266" value="+ contratarEmpleadoTemporario (string,string,estring,date)" style="text;align=left;verticalAlign=top;spacingLeft=4;spacingRight=4;overflow=hidden;rotatable=0;points=[[0,0.5],[1,0.5]];portConstraint=eastwest;whiteSpace=wrap;" parent="03mNp1cd8KaJh_UKAjxY-260" vertex="1">
          <mxGeometry y="112" width="230" height="40" as="geometry" />
        </mxCell>
        <mxCell id="03mNp1cd8KaJh_UKAjxY-267" value="+ contrataEmpleadoPermanente (string,string,estring,date)" style="text;align=left;verticalAlign=top;spacingLeft=4;spacingRight=4;overflow=hidden;rotatable=0;points=[[0,0.5],[1,0.5]];portConstraint=eastwest;whiteSpace=wrap;" parent="03mNp1cd8KaJh_UKAjxY-260" vertex="1">
          <mxGeometry y="152" width="230" height="40" as="geometry" />
        </mxCell>
        <mxCell id="03mNp1cd8KaJh_UKAjxY-320" value="+ netoPagoSueldos(empleados)" style="text;align=left;verticalAlign=top;spacingLeft=4;spacingRight=4;overflow=hidden;rotatable=0;points=[[0,0.5],[1,0.5]];portConstraint=eastwest;" parent="03mNp1cd8KaJh_UKAjxY-260" vertex="1">
          <mxGeometry y="192" width="230" height="26" as="geometry" />
        </mxCell>
        <mxCell id="03mNp1cd8KaJh_UKAjxY-321" value="+ brutoPagoSueldos(empleados)" style="text;align=left;verticalAlign=top;spacingLeft=4;spacingRight=4;overflow=hidden;rotatable=0;points=[[0,0.5],[1,0.5]];portConstraint=eastwest;" parent="03mNp1cd8KaJh_UKAjxY-260" vertex="1">
          <mxGeometry y="218" width="230" height="26" as="geometry" />
        </mxCell>
        <mxCell id="03mNp1cd8KaJh_UKAjxY-322" value="+ retencionesPagoSueldos(Empleados)" style="text;align=left;verticalAlign=top;spacingLeft=4;spacingRight=4;overflow=hidden;rotatable=0;points=[[0,0.5],[1,0.5]];portConstraint=eastwest;" parent="03mNp1cd8KaJh_UKAjxY-260" vertex="1">
          <mxGeometry y="244" width="230" height="26" as="geometry" />
        </mxCell>
        <mxCell id="Ae9tPTTmzAyzm1NeiQLn-0" value="+ getReciboDeSueldo(Empleado)" style="text;align=left;verticalAlign=top;spacingLeft=4;spacingRight=4;overflow=hidden;rotatable=0;points=[[0,0.5],[1,0.5]];portConstraint=eastwest;fontStyle=0" vertex="1" parent="03mNp1cd8KaJh_UKAjxY-260">
          <mxGeometry y="270" width="230" height="26" as="geometry" />
        </mxCell>
        <mxCell id="zGNO92efJrWU-GqZvEOC-0" value="+ crearReciboPara(Empleado,Empresa)" style="text;align=left;verticalAlign=top;spacingLeft=4;spacingRight=4;overflow=hidden;rotatable=0;points=[[0,0.5],[1,0.5]];portConstraint=eastwest;fontStyle=0" parent="03mNp1cd8KaJh_UKAjxY-260" vertex="1">
          <mxGeometry y="296" width="230" height="26" as="geometry" />
        </mxCell>
        <mxCell id="Ae9tPTTmzAyzm1NeiQLn-12" value="+ getSueldoEmpleado(Empleado)" style="text;align=left;verticalAlign=top;spacingLeft=4;spacingRight=4;overflow=hidden;rotatable=0;points=[[0,0.5],[1,0.5]];portConstraint=eastwest;fontStyle=0" vertex="1" parent="03mNp1cd8KaJh_UKAjxY-260">
          <mxGeometry y="322" width="230" height="26" as="geometry" />
        </mxCell>
        <mxCell id="03mNp1cd8KaJh_UKAjxY-323" value="+ new(nombre:String,cuit:float)" style="text;align=left;verticalAlign=top;spacingLeft=4;spacingRight=4;overflow=hidden;rotatable=0;points=[[0,0.5],[1,0.5]];portConstraint=eastwest;fontStyle=4;labelBorderColor=none;" parent="03mNp1cd8KaJh_UKAjxY-260" vertex="1">
          <mxGeometry y="348" width="230" height="26" as="geometry" />
        </mxCell>
        <mxCell id="03mNp1cd8KaJh_UKAjxY-314" value="+ setBruto(Empleado,float)" style="text;align=left;verticalAlign=top;spacingLeft=4;spacingRight=4;overflow=hidden;rotatable=0;points=[[0,0.5],[1,0.5]];portConstraint=eastwest;rounded=0;shadow=0;html=0;" parent="03mNp1cd8KaJh_UKAjxY-260" vertex="1">
          <mxGeometry y="374" width="230" height="26" as="geometry" />
        </mxCell>
        <mxCell id="03mNp1cd8KaJh_UKAjxY-268" value="empleados" style="endArrow=block;endFill=1;html=1;edgeStyle=orthogonalEdgeStyle;align=left;verticalAlign=top;fontSize=12;entryX=0.5;entryY=0;entryDx=0;entryDy=0;exitX=1;exitY=0.5;exitDx=0;exitDy=0;startArrow=block;startFill=1;" parent="WIyWlLk6GJQsqaUBKTNV-1" source="03mNp1cd8KaJh_UKAjxY-261" target="03mNp1cd8KaJh_UKAjxY-227" edge="1">
          <mxGeometry x="-1" relative="1" as="geometry">
            <mxPoint x="1970" y="150" as="sourcePoint" />
            <mxPoint x="2130" y="150" as="targetPoint" />
          </mxGeometry>
        </mxCell>
        <mxCell id="03mNp1cd8KaJh_UKAjxY-269" value="1" style="edgeLabel;resizable=0;html=1;align=left;verticalAlign=bottom;" parent="03mNp1cd8KaJh_UKAjxY-268" connectable="0" vertex="1">
          <mxGeometry x="-1" relative="1" as="geometry">
            <mxPoint x="2" y="-4" as="offset" />
          </mxGeometry>
        </mxCell>
        <mxCell id="03mNp1cd8KaJh_UKAjxY-280" value="Sueldo" style="swimlane;fontStyle=0;align=center;verticalAlign=top;childLayout=stackLayout;horizontal=1;startSize=26;horizontalStack=0;resizeParent=1;resizeLast=0;collapsible=1;marginBottom=0;rounded=0;shadow=0;strokeWidth=1;" parent="WIyWlLk6GJQsqaUBKTNV-1" vertex="1">
          <mxGeometry x="1410" y="156" width="200" height="324" as="geometry">
            <mxRectangle x="130" y="380" width="160" height="26" as="alternateBounds" />
          </mxGeometry>
        </mxCell>
        <mxCell id="03mNp1cd8KaJh_UKAjxY-281" value="- empleado:Empleado" style="text;align=left;verticalAlign=top;spacingLeft=4;spacingRight=4;overflow=hidden;rotatable=0;points=[[0,0.5],[1,0.5]];portConstraint=eastwest;rounded=0;shadow=0;html=0;" parent="03mNp1cd8KaJh_UKAjxY-280" vertex="1">
          <mxGeometry y="26" width="200" height="26" as="geometry" />
        </mxCell>
        <mxCell id="03mNp1cd8KaJh_UKAjxY-282" value="- montoBruto:float" style="text;align=left;verticalAlign=top;spacingLeft=4;spacingRight=4;overflow=hidden;rotatable=0;points=[[0,0.5],[1,0.5]];portConstraint=eastwest;" parent="03mNp1cd8KaJh_UKAjxY-280" vertex="1">
          <mxGeometry y="52" width="200" height="26" as="geometry" />
        </mxCell>
        <mxCell id="Ae9tPTTmzAyzm1NeiQLn-13" value="- conceptos(string)" style="text;align=left;verticalAlign=top;spacingLeft=4;spacingRight=4;overflow=hidden;rotatable=0;points=[[0,0.5],[1,0.5]];portConstraint=eastwest;" vertex="1" parent="03mNp1cd8KaJh_UKAjxY-280">
          <mxGeometry y="78" width="200" height="26" as="geometry" />
        </mxCell>
        <mxCell id="03mNp1cd8KaJh_UKAjxY-284" value="" style="line;html=1;strokeWidth=1;align=left;verticalAlign=middle;spacingTop=-1;spacingLeft=3;spacingRight=3;rotatable=0;labelPosition=right;points=[];portConstraint=eastwest;" parent="03mNp1cd8KaJh_UKAjxY-280" vertex="1">
          <mxGeometry y="104" width="200" height="8" as="geometry" />
        </mxCell>
        <mxCell id="03mNp1cd8KaJh_UKAjxY-285" value="+ getNeto()" style="text;align=left;verticalAlign=top;spacingLeft=4;spacingRight=4;overflow=hidden;rotatable=0;points=[[0,0.5],[1,0.5]];portConstraint=eastwest;" parent="03mNp1cd8KaJh_UKAjxY-280" vertex="1">
          <mxGeometry y="112" width="200" height="26" as="geometry" />
        </mxCell>
        <mxCell id="03mNp1cd8KaJh_UKAjxY-286" value="+ getBruto()" style="text;align=left;verticalAlign=top;spacingLeft=4;spacingRight=4;overflow=hidden;rotatable=0;points=[[0,0.5],[1,0.5]];portConstraint=eastwest;" parent="03mNp1cd8KaJh_UKAjxY-280" vertex="1">
          <mxGeometry y="138" width="200" height="26" as="geometry" />
        </mxCell>
        <mxCell id="03mNp1cd8KaJh_UKAjxY-287" value="+ getRetenciones()" style="text;align=left;verticalAlign=top;spacingLeft=4;spacingRight=4;overflow=hidden;rotatable=0;points=[[0,0.5],[1,0.5]];portConstraint=eastwest;" parent="03mNp1cd8KaJh_UKAjxY-280" vertex="1">
          <mxGeometry y="164" width="200" height="26" as="geometry" />
        </mxCell>
        <mxCell id="03mNp1cd8KaJh_UKAjxY-288" value="+ agregarRetencion(int,string,float)" style="text;align=left;verticalAlign=top;spacingLeft=4;spacingRight=4;overflow=hidden;rotatable=0;points=[[0,0.5],[1,0.5]];portConstraint=eastwest;whiteSpace=wrap;fontStyle=0" parent="03mNp1cd8KaJh_UKAjxY-280" vertex="1">
          <mxGeometry y="190" width="200" height="30" as="geometry" />
        </mxCell>
        <mxCell id="03mNp1cd8KaJh_UKAjxY-289" value="+ borrarRetencion(codigo:int)" style="text;align=left;verticalAlign=top;spacingLeft=4;spacingRight=4;overflow=hidden;rotatable=0;points=[[0,0.5],[1,0.5]];portConstraint=eastwest;" parent="03mNp1cd8KaJh_UKAjxY-280" vertex="1">
          <mxGeometry y="220" width="200" height="26" as="geometry" />
        </mxCell>
        <mxCell id="03mNp1cd8KaJh_UKAjxY-290" value="+ setBruto(float)" style="text;align=left;verticalAlign=top;spacingLeft=4;spacingRight=4;overflow=hidden;rotatable=0;points=[[0,0.5],[1,0.5]];portConstraint=eastwest;" parent="03mNp1cd8KaJh_UKAjxY-280" vertex="1">
          <mxGeometry y="246" width="200" height="26" as="geometry" />
        </mxCell>
        <mxCell id="zGNO92efJrWU-GqZvEOC-5" value="+ setConceptos" style="text;align=left;verticalAlign=top;spacingLeft=4;spacingRight=4;overflow=hidden;rotatable=0;points=[[0,0.5],[1,0.5]];portConstraint=eastwest;" parent="03mNp1cd8KaJh_UKAjxY-280" vertex="1">
          <mxGeometry y="272" width="200" height="26" as="geometry" />
        </mxCell>
        <mxCell id="03mNp1cd8KaJh_UKAjxY-291" value="+ new(montoBruto:float, Empleado)" style="text;align=left;verticalAlign=top;spacingLeft=4;spacingRight=4;overflow=hidden;rotatable=0;points=[[0,0.5],[1,0.5]];portConstraint=eastwest;fontStyle=4" parent="03mNp1cd8KaJh_UKAjxY-280" vertex="1">
          <mxGeometry y="298" width="200" height="26" as="geometry" />
        </mxCell>
        <mxCell id="03mNp1cd8KaJh_UKAjxY-336" value="RecibosHaberes" style="swimlane;fontStyle=0;align=center;verticalAlign=top;childLayout=stackLayout;horizontal=1;startSize=26;horizontalStack=0;resizeParent=1;resizeLast=0;collapsible=1;marginBottom=0;rounded=0;shadow=0;strokeWidth=1;" parent="WIyWlLk6GJQsqaUBKTNV-1" vertex="1">
          <mxGeometry x="1960" y="140" width="160" height="268" as="geometry">
            <mxRectangle x="130" y="380" width="160" height="26" as="alternateBounds" />
          </mxGeometry>
        </mxCell>
        <mxCell id="03mNp1cd8KaJh_UKAjxY-338" value="- direccion:string" style="text;align=left;verticalAlign=top;spacingLeft=4;spacingRight=4;overflow=hidden;rotatable=0;points=[[0,0.5],[1,0.5]];portConstraint=eastwest;" parent="03mNp1cd8KaJh_UKAjxY-336" vertex="1">
          <mxGeometry y="26" width="160" height="26" as="geometry" />
        </mxCell>
        <mxCell id="03mNp1cd8KaJh_UKAjxY-337" value="- legajo:double" style="text;align=left;verticalAlign=top;spacingLeft=4;spacingRight=4;overflow=hidden;rotatable=0;points=[[0,0.5],[1,0.5]];portConstraint=eastwest;" parent="03mNp1cd8KaJh_UKAjxY-336" vertex="1">
          <mxGeometry y="52" width="160" height="26" as="geometry" />
        </mxCell>
        <mxCell id="03mNp1cd8KaJh_UKAjxY-339" value="- sueldoBruto:float" style="text;align=left;verticalAlign=top;spacingLeft=4;spacingRight=4;overflow=hidden;rotatable=0;points=[[0,0.5],[1,0.5]];portConstraint=eastwest;" parent="03mNp1cd8KaJh_UKAjxY-336" vertex="1">
          <mxGeometry y="78" width="160" height="26" as="geometry" />
        </mxCell>
        <mxCell id="03mNp1cd8KaJh_UKAjxY-341" value="- sueldo:float" style="text;align=left;verticalAlign=top;spacingLeft=4;spacingRight=4;overflow=hidden;rotatable=0;points=[[0,0.5],[1,0.5]];portConstraint=eastwest;" parent="03mNp1cd8KaJh_UKAjxY-336" vertex="1">
          <mxGeometry y="104" width="160" height="26" as="geometry" />
        </mxCell>
        <mxCell id="03mNp1cd8KaJh_UKAjxY-342" value="- retenciones: float" style="text;align=left;verticalAlign=top;spacingLeft=4;spacingRight=4;overflow=hidden;rotatable=0;points=[[0,0.5],[1,0.5]];portConstraint=eastwest;" parent="03mNp1cd8KaJh_UKAjxY-336" vertex="1">
          <mxGeometry y="130" width="160" height="26" as="geometry" />
        </mxCell>
        <mxCell id="03mNp1cd8KaJh_UKAjxY-343" value="" style="line;html=1;strokeWidth=1;align=left;verticalAlign=middle;spacingTop=-1;spacingLeft=3;spacingRight=3;rotatable=0;labelPosition=right;points=[];portConstraint=eastwest;" parent="03mNp1cd8KaJh_UKAjxY-336" vertex="1">
          <mxGeometry y="156" width="160" height="8" as="geometry" />
        </mxCell>
        <mxCell id="03mNp1cd8KaJh_UKAjxY-340" value="- sueldoNeto:float" style="text;align=left;verticalAlign=top;spacingLeft=4;spacingRight=4;overflow=hidden;rotatable=0;points=[[0,0.5],[1,0.5]];portConstraint=eastwest;" parent="03mNp1cd8KaJh_UKAjxY-336" vertex="1">
          <mxGeometry y="164" width="160" height="26" as="geometry" />
        </mxCell>
        <mxCell id="Ae9tPTTmzAyzm1NeiQLn-1" value="+ new(Empleado,Empresa)" style="text;align=left;verticalAlign=top;spacingLeft=4;spacingRight=4;overflow=hidden;rotatable=0;points=[[0,0.5],[1,0.5]];portConstraint=eastwest;" vertex="1" parent="03mNp1cd8KaJh_UKAjxY-336">
          <mxGeometry y="190" width="160" height="26" as="geometry" />
        </mxCell>
        <mxCell id="Ae9tPTTmzAyzm1NeiQLn-2" value="+ setDatosEmpresa(Empresa)" style="text;align=left;verticalAlign=top;spacingLeft=4;spacingRight=4;overflow=hidden;rotatable=0;points=[[0,0.5],[1,0.5]];portConstraint=eastwest;" vertex="1" parent="03mNp1cd8KaJh_UKAjxY-336">
          <mxGeometry y="216" width="160" height="26" as="geometry" />
        </mxCell>
        <mxCell id="03mNp1cd8KaJh_UKAjxY-355" value="+ setDatosEmpleado(Empleado)" style="text;align=left;verticalAlign=top;spacingLeft=4;spacingRight=4;overflow=hidden;rotatable=0;points=[[0,0.5],[1,0.5]];portConstraint=eastwest;" parent="03mNp1cd8KaJh_UKAjxY-336" vertex="1">
          <mxGeometry y="242" width="160" height="26" as="geometry" />
        </mxCell>
        <mxCell id="03mNp1cd8KaJh_UKAjxY-353" value="&lt;span style=&quot;font-size: 12px ; text-align: center ; background-color: rgb(248 , 249 , 250)&quot;&gt;RecibosHaberes&lt;/span&gt;" style="endArrow=block;endFill=1;html=1;edgeStyle=orthogonalEdgeStyle;align=left;verticalAlign=top;fontSize=14;startSize=6;endSize=6;strokeColor=#000000;entryX=0.5;entryY=0;entryDx=0;entryDy=0;exitX=0.996;exitY=0.077;exitDx=0;exitDy=0;exitPerimeter=0;" parent="WIyWlLk6GJQsqaUBKTNV-1" source="03mNp1cd8KaJh_UKAjxY-264" target="03mNp1cd8KaJh_UKAjxY-336" edge="1">
          <mxGeometry x="-0.2534" y="10" relative="1" as="geometry">
            <mxPoint x="1790" y="440" as="sourcePoint" />
            <mxPoint x="1950" y="440" as="targetPoint" />
            <mxPoint as="offset" />
          </mxGeometry>
        </mxCell>
        <mxCell id="03mNp1cd8KaJh_UKAjxY-354" value="1" style="edgeLabel;resizable=0;html=1;align=left;verticalAlign=bottom;" parent="03mNp1cd8KaJh_UKAjxY-353" connectable="0" vertex="1">
          <mxGeometry x="-1" relative="1" as="geometry" />
        </mxCell>
        <mxCell id="zGNO92efJrWU-GqZvEOC-4" value="*" style="text;html=1;strokeColor=none;fillColor=none;align=center;verticalAlign=middle;whiteSpace=wrap;rounded=0;fontSize=16;" parent="WIyWlLk6GJQsqaUBKTNV-1" vertex="1">
          <mxGeometry x="2220" y="29" width="40" height="20" as="geometry" />
        </mxCell>
        <mxCell id="Ae9tPTTmzAyzm1NeiQLn-9" value="sueldoEmpleados" style="endArrow=block;endFill=1;html=1;edgeStyle=orthogonalEdgeStyle;align=left;verticalAlign=top;exitX=-0.001;exitY=0.724;exitDx=0;exitDy=0;exitPerimeter=0;" edge="1" parent="WIyWlLk6GJQsqaUBKTNV-1" source="03mNp1cd8KaJh_UKAjxY-262" target="03mNp1cd8KaJh_UKAjxY-280">
          <mxGeometry x="-0.157" y="7" relative="1" as="geometry">
            <mxPoint x="1440" y="90" as="sourcePoint" />
            <mxPoint x="1600" y="90" as="targetPoint" />
            <mxPoint as="offset" />
          </mxGeometry>
        </mxCell>
        <mxCell id="Ae9tPTTmzAyzm1NeiQLn-10" value="1" style="edgeLabel;resizable=0;html=1;align=left;verticalAlign=bottom;" connectable="0" vertex="1" parent="Ae9tPTTmzAyzm1NeiQLn-9">
          <mxGeometry x="-1" relative="1" as="geometry">
            <mxPoint x="-26" y="-6" as="offset" />
          </mxGeometry>
        </mxCell>
      </root>
    </mxGraphModel>
  </diagram>
</mxfile>
